<?xml version="1.0" encoding="UTF-8" standalone="no"?><svg xmlns="http://www.w3.org/2000/svg" xmlns:xlink="http://www.w3.org/1999/xlink" contentStyleType="text/css" height="1761px" preserveAspectRatio="none" style="width:874px;height:1761px;background:#FFFFFF;" version="1.1" viewBox="0 0 874 1761" width="874px" zoomAndPan="magnify"><defs/><g><!--MD5=[2cb20bf6d6d76d6b7fb8dcb62eb5d32f]
cluster mainAppGroup--><!--MD5=[315bf7c36bcdbdaee5bb7549ab6e8767]
cluster javafx.application--><g id="cluster_javafx.application"><path d="M359.5,175 L483.5,175 A3.75,3.75 0 0 1 486,177.5 L493,198.6094 L493.5,198.6094 A2.5,2.5 0 0 1 496,201.1094 L496,307.5 A2.5,2.5 0 0 1 493.5,310 L359.5,310 A2.5,2.5 0 0 1 357,307.5 L357,177.5 A2.5,2.5 0 0 1 359.5,175 " fill="none" style="stroke:#000000;stroke-width:1.5;"/><line style="stroke:#000000;stroke-width:1.5;" x1="357" x2="493" y1="198.6094" y2="198.6094"/><text fill="#000000" font-family="sans-serif" font-size="14" font-weight="bold" lengthAdjust="spacing" textLength="123" x="361" y="191.5332">javafx.application</text></g><!--MD5=[7db3c59d38ae5b37b484eb2df9368145]
cluster java.util--><g id="cluster_java.util"><path d="M97.5,6 L153.5,6 A3.75,3.75 0 0 1 156,8.5 L163,29.6094 L224.5,29.6094 A2.5,2.5 0 0 1 227,32.1094 L227,103.5 A2.5,2.5 0 0 1 224.5,106 L97.5,106 A2.5,2.5 0 0 1 95,103.5 L95,8.5 A2.5,2.5 0 0 1 97.5,6 " fill="none" style="stroke:#000000;stroke-width:1.5;"/><line style="stroke:#000000;stroke-width:1.5;" x1="95" x2="163" y1="29.6094" y2="29.6094"/><text fill="#000000" font-family="sans-serif" font-size="14" font-weight="bold" lengthAdjust="spacing" textLength="55" x="99" y="22.5332">java.util</text></g><!--MD5=[8e1e71149ef01f35a8a714fcedcc22c8]
cluster VectorFieldWidgetGroup--><!--MD5=[335f4d9be48430461c68bf6d6fdba145]
class App--><g id="elem_App"><rect codeLine="11" fill="#F1F1F1" height="646.7188" id="App" rx="2.5" ry="2.5" style="stroke:#181818;stroke-width:0.5;" width="310" x="7" y="747"/><ellipse cx="145.25" cy="763" fill="#C2C2C2" rx="11" ry="11" style="stroke:#181818;stroke-width:1.0;"/><path d="M148.0156,758.875 Q148.1719,758.6563 148.3594,758.5469 Q148.5469,758.4375 148.7656,758.4375 Q149.1406,758.4375 149.375,758.7031 Q149.6094,758.9531 149.6094,759.5625 L149.6094,761.0156 Q149.6094,761.625 149.375,761.8906 Q149.1406,762.1563 148.7656,762.1563 Q148.4219,762.1563 148.2188,761.9531 Q148.0156,761.7656 147.9063,761.25 Q147.8594,760.8906 147.6719,760.7031 Q147.3438,760.3281 146.7344,760.1094 Q146.125,759.8906 145.5,759.8906 Q144.7344,759.8906 144.0938,760.2188 Q143.4688,760.5469 142.9688,761.2969 Q142.4844,762.0469 142.4844,763.0781 L142.4844,764.1719 Q142.4844,765.4063 143.375,766.2344 Q144.2656,767.0469 145.8594,767.0469 Q146.7969,767.0469 147.4531,766.7969 Q147.8438,766.6406 148.2656,766.2031 Q148.5313,765.9375 148.6719,765.8594 Q148.8281,765.7813 149.0313,765.7813 Q149.3594,765.7813 149.6094,766.0469 Q149.875,766.2969 149.875,766.6406 Q149.875,766.9844 149.5313,767.3906 Q149.0313,767.9688 148.2344,768.2969 Q147.1563,768.75 145.8594,768.75 Q144.3438,768.75 143.1406,768.125 Q142.1563,767.625 141.4688,766.5625 Q140.7813,765.4844 140.7813,764.2031 L140.7813,763.0469 Q140.7813,761.7188 141.3906,760.5781 Q142.0156,759.4219 143.1094,758.8125 Q144.2031,758.1875 145.4375,758.1875 Q146.1719,758.1875 146.8125,758.3594 Q147.4688,758.5156 148.0156,758.875 Z " fill="#000000"/><text fill="#000000" font-family="sans-serif" font-size="14" lengthAdjust="spacing" textLength="25" x="165.75" y="768.7285">App</text><line style="stroke:#181818;stroke-width:0.5;" x1="8" x2="316" y1="779" y2="779"/><line style="stroke:#181818;stroke-width:0.5;" x1="8" x2="316" y1="787" y2="787"/><text fill="#000000" font-family="sans-serif" font-size="14" lengthAdjust="spacing" textLength="48" x="13" y="805.5332">+main()</text><text fill="#000000" font-family="sans-serif" font-size="14" lengthAdjust="spacing" textLength="46" x="13" y="823.1426">+start()</text><text fill="#000000" font-family="sans-serif" font-size="14" lengthAdjust="spacing" textLength="127" x="13" y="840.752">-initializeRootPane()</text><text fill="#000000" font-family="sans-serif" font-size="14" lengthAdjust="spacing" textLength="157" x="13" y="858.3613">-initializeChildrenPanes()</text><text fill="#000000" font-family="sans-serif" font-size="14" lengthAdjust="spacing" textLength="178" x="13" y="875.9707">-initializeParametersHolder()</text><text fill="#000000" font-family="sans-serif" font-size="14" lengthAdjust="spacing" textLength="200" x="13" y="893.5801">-addXminToParametersHolder()</text><text fill="#000000" font-family="sans-serif" font-size="14" lengthAdjust="spacing" textLength="203" x="13" y="911.1895">-addXmaxToParametersHolder()</text><text fill="#000000" font-family="sans-serif" font-size="14" lengthAdjust="spacing" textLength="201" x="13" y="928.7988">-addYminToParametersHolder()</text><text fill="#000000" font-family="sans-serif" font-size="14" lengthAdjust="spacing" textLength="204" x="13" y="946.4082">-addYmaxToParametersHolder()</text><text fill="#000000" font-family="sans-serif" font-size="14" lengthAdjust="spacing" textLength="233" x="13" y="964.0176">-addDeltaXminToParametersHolder()</text><text fill="#000000" font-family="sans-serif" font-size="14" lengthAdjust="spacing" textLength="236" x="13" y="981.627">-addDeltaXmaxToParametersHolder()</text><text fill="#000000" font-family="sans-serif" font-size="14" lengthAdjust="spacing" textLength="234" x="13" y="999.2363">-addDeltaYminToParametersHolder()</text><text fill="#000000" font-family="sans-serif" font-size="14" lengthAdjust="spacing" textLength="237" x="13" y="1016.8457">-addDeltaYmaxToParametersHolder()</text><text fill="#000000" font-family="sans-serif" font-size="14" lengthAdjust="spacing" textLength="252" x="13" y="1034.4551">-addNumOfPointsToParametersHolder()</text><text fill="#000000" font-family="sans-serif" font-size="14" lengthAdjust="spacing" textLength="298" x="13" y="1052.0645">-addAppModeComboBoxToParametersHolder()</text><text fill="#000000" font-family="sans-serif" font-size="14" lengthAdjust="spacing" textLength="276" x="13" y="1069.6738">-addParametersHolderToParametersPane()</text><text fill="#000000" font-family="sans-serif" font-size="14" lengthAdjust="spacing" textLength="269" x="13" y="1087.2832">-addRefreshingRateToParametersHolder()</text><text fill="#000000" font-family="sans-serif" font-size="14" lengthAdjust="spacing" textLength="257" x="13" y="1104.8926">-addScalingFactorToParametersHolder()</text><text fill="#000000" font-family="sans-serif" font-size="14" lengthAdjust="spacing" textLength="232" x="13" y="1122.502">-parseParametersFromGuiControls()</text><text fill="#000000" font-family="sans-serif" font-size="14" lengthAdjust="spacing" textLength="136" x="13" y="1140.1113">-initializeVectorField()</text><text fill="#000000" font-family="sans-serif" font-size="14" lengthAdjust="spacing" textLength="202" x="13" y="1157.7207">-setModesComboBoxOnAction()</text><text fill="#000000" font-family="sans-serif" font-size="14" lengthAdjust="spacing" textLength="144" x="13" y="1175.3301">-setXminCtrlOnAction()</text><text fill="#000000" font-family="sans-serif" font-size="14" lengthAdjust="spacing" textLength="147" x="13" y="1192.9395">-setXmaxCtrlOnAction()</text><text fill="#000000" font-family="sans-serif" font-size="14" lengthAdjust="spacing" textLength="145" x="13" y="1210.5488">-setYminCtrlOnAction()</text><text fill="#000000" font-family="sans-serif" font-size="14" lengthAdjust="spacing" textLength="148" x="13" y="1228.1582">-setYmaxCtrlOnAction()</text><text fill="#000000" font-family="sans-serif" font-size="14" lengthAdjust="spacing" textLength="177" x="13" y="1245.7676">-setDeltaXminCtrlOnAction()</text><text fill="#000000" font-family="sans-serif" font-size="14" lengthAdjust="spacing" textLength="180" x="13" y="1263.377">-setDeltaXmaxCtrlOnAction()</text><text fill="#000000" font-family="sans-serif" font-size="14" lengthAdjust="spacing" textLength="178" x="13" y="1280.9863">-setDeltaYminCtrlOnAction()</text><text fill="#000000" font-family="sans-serif" font-size="14" lengthAdjust="spacing" textLength="181" x="13" y="1298.5957">-setDeltaYmaxCtrlOnAction()</text><text fill="#000000" font-family="sans-serif" font-size="14" lengthAdjust="spacing" textLength="195" x="13" y="1316.2051">-setNumberOfPointsOnAction()</text><text fill="#000000" font-family="sans-serif" font-size="14" lengthAdjust="spacing" textLength="179" x="13" y="1333.8145">-setScalingFactorOnAction()</text><text fill="#000000" font-family="sans-serif" font-size="14" lengthAdjust="spacing" textLength="183" x="13" y="1351.4238">-setRefreshinRateOnAction()</text><text fill="#000000" font-family="sans-serif" font-size="14" lengthAdjust="spacing" textLength="101" x="13" y="1369.0332">-initializeStage()</text><text fill="#000000" font-family="sans-serif" font-size="14" lengthAdjust="spacing" textLength="177" x="13" y="1386.6426">-GenerateVectorFieldData()</text></g><!--MD5=[52846e8e4ab4b8ede23547817acd6172]
class PeriodicDataGenerator--><g id="elem_PeriodicDataGenerator"><rect codeLine="47" fill="#F1F1F1" height="83.2188" id="PeriodicDataGenerator" rx="2.5" ry="2.5" style="stroke:#181818;stroke-width:0.5;" width="178" x="73" y="211"/><ellipse cx="88" cy="227" fill="#C2C2C2" rx="11" ry="11" style="stroke:#181818;stroke-width:1.0;"/><path d="M90.7656,222.875 Q90.9219,222.6563 91.1094,222.5469 Q91.2969,222.4375 91.5156,222.4375 Q91.8906,222.4375 92.125,222.7031 Q92.3594,222.9531 92.3594,223.5625 L92.3594,225.0156 Q92.3594,225.625 92.125,225.8906 Q91.8906,226.1563 91.5156,226.1563 Q91.1719,226.1563 90.9688,225.9531 Q90.7656,225.7656 90.6563,225.25 Q90.6094,224.8906 90.4219,224.7031 Q90.0938,224.3281 89.4844,224.1094 Q88.875,223.8906 88.25,223.8906 Q87.4844,223.8906 86.8438,224.2188 Q86.2188,224.5469 85.7188,225.2969 Q85.2344,226.0469 85.2344,227.0781 L85.2344,228.1719 Q85.2344,229.4063 86.125,230.2344 Q87.0156,231.0469 88.6094,231.0469 Q89.5469,231.0469 90.2031,230.7969 Q90.5938,230.6406 91.0156,230.2031 Q91.2813,229.9375 91.4219,229.8594 Q91.5781,229.7813 91.7813,229.7813 Q92.1094,229.7813 92.3594,230.0469 Q92.625,230.2969 92.625,230.6406 Q92.625,230.9844 92.2813,231.3906 Q91.7813,231.9688 90.9844,232.2969 Q89.9063,232.75 88.6094,232.75 Q87.0938,232.75 85.8906,232.125 Q84.9063,231.625 84.2188,230.5625 Q83.5313,229.4844 83.5313,228.2031 L83.5313,227.0469 Q83.5313,225.7188 84.1406,224.5781 Q84.7656,223.4219 85.8594,222.8125 Q86.9531,222.1875 88.1875,222.1875 Q88.9219,222.1875 89.5625,222.3594 Q90.2188,222.5156 90.7656,222.875 Z " fill="#000000"/><text fill="#000000" font-family="sans-serif" font-size="14" lengthAdjust="spacing" textLength="146" x="102" y="232.7285">PeriodicDataGenerator</text><line style="stroke:#181818;stroke-width:0.5;" x1="74" x2="250" y1="243" y2="243"/><line style="stroke:#181818;stroke-width:0.5;" x1="74" x2="250" y1="251" y2="251"/><text fill="#000000" font-family="sans-serif" font-size="14" lengthAdjust="spacing" textLength="164" x="79" y="269.5332">+PeriodicDataGenerator()</text><text fill="#000000" font-family="sans-serif" font-size="14" lengthAdjust="spacing" textLength="39" x="79" y="287.1426">+run()</text></g><!--MD5=[e3612552781b2b3849880f2b7cc3064d]
class javafx.application.Application--><g id="elem_javafx.application.Application"><rect codeLine="7" fill="#F1F1F1" height="83.2188" id="javafx.application.Application" rx="2.5" ry="2.5" style="stroke:#181818;stroke-width:0.5;" width="101" x="373.5" y="211"/><ellipse cx="388.5" cy="227" fill="#C2C2C2" rx="11" ry="11" style="stroke:#181818;stroke-width:1.0;"/><path d="M391.2656,222.875 Q391.4219,222.6563 391.6094,222.5469 Q391.7969,222.4375 392.0156,222.4375 Q392.3906,222.4375 392.625,222.7031 Q392.8594,222.9531 392.8594,223.5625 L392.8594,225.0156 Q392.8594,225.625 392.625,225.8906 Q392.3906,226.1563 392.0156,226.1563 Q391.6719,226.1563 391.4688,225.9531 Q391.2656,225.7656 391.1563,225.25 Q391.1094,224.8906 390.9219,224.7031 Q390.5938,224.3281 389.9844,224.1094 Q389.375,223.8906 388.75,223.8906 Q387.9844,223.8906 387.3438,224.2188 Q386.7188,224.5469 386.2188,225.2969 Q385.7344,226.0469 385.7344,227.0781 L385.7344,228.1719 Q385.7344,229.4063 386.625,230.2344 Q387.5156,231.0469 389.1094,231.0469 Q390.0469,231.0469 390.7031,230.7969 Q391.0938,230.6406 391.5156,230.2031 Q391.7813,229.9375 391.9219,229.8594 Q392.0781,229.7813 392.2813,229.7813 Q392.6094,229.7813 392.8594,230.0469 Q393.125,230.2969 393.125,230.6406 Q393.125,230.9844 392.7813,231.3906 Q392.2813,231.9688 391.4844,232.2969 Q390.4063,232.75 389.1094,232.75 Q387.5938,232.75 386.3906,232.125 Q385.4063,231.625 384.7188,230.5625 Q384.0313,229.4844 384.0313,228.2031 L384.0313,227.0469 Q384.0313,225.7188 384.6406,224.5781 Q385.2656,223.4219 386.3594,222.8125 Q387.4531,222.1875 388.6875,222.1875 Q389.4219,222.1875 390.0625,222.3594 Q390.7188,222.5156 391.2656,222.875 Z " fill="#000000"/><text fill="#000000" font-family="sans-serif" font-size="14" lengthAdjust="spacing" textLength="69" x="402.5" y="232.7285">Application</text><line style="stroke:#181818;stroke-width:0.5;" x1="374.5" x2="473.5" y1="243" y2="243"/><line style="stroke:#181818;stroke-width:0.5;" x1="374.5" x2="473.5" y1="251" y2="251"/><text fill="#000000" font-family="sans-serif" font-size="14" lengthAdjust="spacing" textLength="46" x="379.5" y="269.5332">+start()</text><text fill="#000000" font-family="sans-serif" font-size="14" lengthAdjust="spacing" textLength="60" x="379.5" y="287.1426">+launch()</text></g><!--MD5=[ad113b661ca3197b37140075903a870b]
class java.util.TimerTask--><g id="elem_java.util.TimerTask"><rect codeLine="51" fill="#F1F1F1" height="48" id="java.util.TimerTask" rx="2.5" ry="2.5" style="stroke:#181818;stroke-width:0.5;" width="99" x="111.5" y="42"/><ellipse cx="126.5" cy="58" fill="#C2C2C2" rx="11" ry="11" style="stroke:#181818;stroke-width:1.0;"/><path d="M129.2656,53.875 Q129.4219,53.6563 129.6094,53.5469 Q129.7969,53.4375 130.0156,53.4375 Q130.3906,53.4375 130.625,53.7031 Q130.8594,53.9531 130.8594,54.5625 L130.8594,56.0156 Q130.8594,56.625 130.625,56.8906 Q130.3906,57.1563 130.0156,57.1563 Q129.6719,57.1563 129.4688,56.9531 Q129.2656,56.7656 129.1563,56.25 Q129.1094,55.8906 128.9219,55.7031 Q128.5938,55.3281 127.9844,55.1094 Q127.375,54.8906 126.75,54.8906 Q125.9844,54.8906 125.3438,55.2188 Q124.7188,55.5469 124.2188,56.2969 Q123.7344,57.0469 123.7344,58.0781 L123.7344,59.1719 Q123.7344,60.4063 124.625,61.2344 Q125.5156,62.0469 127.1094,62.0469 Q128.0469,62.0469 128.7031,61.7969 Q129.0938,61.6406 129.5156,61.2031 Q129.7813,60.9375 129.9219,60.8594 Q130.0781,60.7813 130.2813,60.7813 Q130.6094,60.7813 130.8594,61.0469 Q131.125,61.2969 131.125,61.6406 Q131.125,61.9844 130.7813,62.3906 Q130.2813,62.9688 129.4844,63.2969 Q128.4063,63.75 127.1094,63.75 Q125.5938,63.75 124.3906,63.125 Q123.4063,62.625 122.7188,61.5625 Q122.0313,60.4844 122.0313,59.2031 L122.0313,58.0469 Q122.0313,56.7188 122.6406,55.5781 Q123.2656,54.4219 124.3594,53.8125 Q125.4531,53.1875 126.6875,53.1875 Q127.4219,53.1875 128.0625,53.3594 Q128.7188,53.5156 129.2656,53.875 Z " fill="#000000"/><text fill="#000000" font-family="sans-serif" font-size="14" lengthAdjust="spacing" textLength="67" x="140.5" y="63.7285">TimerTask</text><line style="stroke:#181818;stroke-width:0.5;" x1="112.5" x2="209.5" y1="74" y2="74"/><line style="stroke:#181818;stroke-width:0.5;" x1="112.5" x2="209.5" y1="82" y2="82"/></g><!--MD5=[cf2b53f92e18b922eebbeaeb91afa82e]
class VectorFieldWidget--><g id="elem_VectorFieldWidget"><rect codeLine="56" fill="#F1F1F1" height="1368.7031" id="VectorFieldWidget" rx="2.5" ry="2.5" style="stroke:#181818;stroke-width:0.5;" width="318" x="408" y="386"/><ellipse cx="504.75" cy="402" fill="#C2C2C2" rx="11" ry="11" style="stroke:#181818;stroke-width:1.0;"/><path d="M507.5156,397.875 Q507.6719,397.6563 507.8594,397.5469 Q508.0469,397.4375 508.2656,397.4375 Q508.6406,397.4375 508.875,397.7031 Q509.1094,397.9531 509.1094,398.5625 L509.1094,400.0156 Q509.1094,400.625 508.875,400.8906 Q508.6406,401.1563 508.2656,401.1563 Q507.9219,401.1563 507.7188,400.9531 Q507.5156,400.7656 507.4063,400.25 Q507.3594,399.8906 507.1719,399.7031 Q506.8438,399.3281 506.2344,399.1094 Q505.625,398.8906 505,398.8906 Q504.2344,398.8906 503.5938,399.2188 Q502.9688,399.5469 502.4688,400.2969 Q501.9844,401.0469 501.9844,402.0781 L501.9844,403.1719 Q501.9844,404.4063 502.875,405.2344 Q503.7656,406.0469 505.3594,406.0469 Q506.2969,406.0469 506.9531,405.7969 Q507.3438,405.6406 507.7656,405.2031 Q508.0313,404.9375 508.1719,404.8594 Q508.3281,404.7813 508.5313,404.7813 Q508.8594,404.7813 509.1094,405.0469 Q509.375,405.2969 509.375,405.6406 Q509.375,405.9844 509.0313,406.3906 Q508.5313,406.9688 507.7344,407.2969 Q506.6563,407.75 505.3594,407.75 Q503.8438,407.75 502.6406,407.125 Q501.6563,406.625 500.9688,405.5625 Q500.2813,404.4844 500.2813,403.2031 L500.2813,402.0469 Q500.2813,400.7188 500.8906,399.5781 Q501.5156,398.4219 502.6094,397.8125 Q503.7031,397.1875 504.9375,397.1875 Q505.6719,397.1875 506.3125,397.3594 Q506.9688,397.5156 507.5156,397.875 Z " fill="#000000"/><text fill="#000000" font-family="sans-serif" font-size="14" lengthAdjust="spacing" textLength="116" x="525.25" y="407.7285">VectorFieldWidget</text><line style="stroke:#181818;stroke-width:0.5;" x1="409" x2="725" y1="418" y2="418"/><line style="stroke:#181818;stroke-width:0.5;" x1="409" x2="725" y1="426" y2="426"/><text fill="#000000" font-family="sans-serif" font-size="14" lengthAdjust="spacing" textLength="134" x="414" y="444.5332">+VectorFieldWidget()</text><text fill="#000000" font-family="sans-serif" font-size="14" lengthAdjust="spacing" textLength="68" x="414" y="462.1426">+getData()</text><text fill="#000000" font-family="sans-serif" font-size="14" lengthAdjust="spacing" textLength="73" x="414" y="479.752">+setWidth()</text><text fill="#000000" font-family="sans-serif" font-size="14" lengthAdjust="spacing" textLength="77" x="414" y="497.3613">+setHeight()</text><text fill="#000000" font-family="sans-serif" font-size="14" lengthAdjust="spacing" textLength="150" x="414" y="514.9707">-initPlotAndAxisNames()</text><text fill="#000000" font-family="sans-serif" font-size="14" lengthAdjust="spacing" textLength="95" x="414" y="532.5801">-initFontSizes()</text><text fill="#000000" font-family="sans-serif" font-size="14" lengthAdjust="spacing" textLength="181" x="414" y="550.1895">-setInitialMinAndMaxValues()</text><text fill="#000000" font-family="sans-serif" font-size="14" lengthAdjust="spacing" textLength="113" x="414" y="567.7988">-initParrentPane()</text><text fill="#000000" font-family="sans-serif" font-size="14" lengthAdjust="spacing" textLength="135" x="414" y="585.4082">-initVectorFieldData()</text><text fill="#000000" font-family="sans-serif" font-size="14" lengthAdjust="spacing" textLength="105" x="414" y="603.0176">-initVectorField()</text><text fill="#000000" font-family="sans-serif" font-size="14" lengthAdjust="spacing" textLength="85" x="414" y="620.627">-initSpacers()</text><text fill="#000000" font-family="sans-serif" font-size="14" lengthAdjust="spacing" textLength="81" x="414" y="638.2363">-initCanvas()</text><text fill="#000000" font-family="sans-serif" font-size="14" lengthAdjust="spacing" textLength="93" x="414" y="655.8457">-initPlotName()</text><text fill="#000000" font-family="sans-serif" font-size="14" lengthAdjust="spacing" textLength="67" x="414" y="673.4551">-initYAxis()</text><text fill="#000000" font-family="sans-serif" font-size="14" lengthAdjust="spacing" textLength="102" x="414" y="691.0645">-initYAxisLabel()</text><text fill="#000000" font-family="sans-serif" font-size="14" lengthAdjust="spacing" textLength="100" x="414" y="708.6738">-initYLabelBox()</text><text fill="#000000" font-family="sans-serif" font-size="14" lengthAdjust="spacing" textLength="155" x="414" y="726.2832">-initYTickLabelSpacers()</text><text fill="#000000" font-family="sans-serif" font-size="14" lengthAdjust="spacing" textLength="102" x="414" y="743.8926">-initYTicksText()</text><text fill="#000000" font-family="sans-serif" font-size="14" lengthAdjust="spacing" textLength="153" x="414" y="761.502">-setYTicksTextPosition()</text><text fill="#000000" font-family="sans-serif" font-size="14" lengthAdjust="spacing" textLength="132" x="414" y="779.1113">-setYTicksTextFont()</text><text fill="#000000" font-family="sans-serif" font-size="14" lengthAdjust="spacing" textLength="133" x="414" y="796.7207">-initYTicksLabelBox()</text><text fill="#000000" font-family="sans-serif" font-size="14" lengthAdjust="spacing" textLength="127" x="414" y="814.3301">-initYTicksSpacers()</text><text fill="#000000" font-family="sans-serif" font-size="14" lengthAdjust="spacing" textLength="119" x="414" y="831.9395">-initYTickDrawing()</text><text fill="#000000" font-family="sans-serif" font-size="14" lengthAdjust="spacing" textLength="164" x="414" y="849.5488">-setYTickDrawingLength()</text><text fill="#000000" font-family="sans-serif" font-size="14" lengthAdjust="spacing" textLength="156" x="414" y="867.1582">-setYTickDrawingWidth()</text><text fill="#000000" font-family="sans-serif" font-size="14" lengthAdjust="spacing" textLength="98" x="414" y="884.7676">-initYTicksBox()</text><text fill="#000000" font-family="sans-serif" font-size="14" lengthAdjust="spacing" textLength="66" x="414" y="902.377">-initXAxis()</text><text fill="#000000" font-family="sans-serif" font-size="14" lengthAdjust="spacing" textLength="101" x="414" y="919.9863">-initXAxisLabel()</text><text fill="#000000" font-family="sans-serif" font-size="14" lengthAdjust="spacing" textLength="99" x="414" y="937.5957">-initXLabelBox()</text><text fill="#000000" font-family="sans-serif" font-size="14" lengthAdjust="spacing" textLength="154" x="414" y="955.2051">-initXTickLabelSpacers()</text><text fill="#000000" font-family="sans-serif" font-size="14" lengthAdjust="spacing" textLength="101" x="414" y="972.8145">-initXTicksText()</text><text fill="#000000" font-family="sans-serif" font-size="14" lengthAdjust="spacing" textLength="152" x="414" y="990.4238">-setXTicksTextPosition()</text><text fill="#000000" font-family="sans-serif" font-size="14" lengthAdjust="spacing" textLength="131" x="414" y="1008.0332">-setXTicksTextFont()</text><text fill="#000000" font-family="sans-serif" font-size="14" lengthAdjust="spacing" textLength="133" x="414" y="1025.6426">-setXTicksLabelBox()</text><text fill="#000000" font-family="sans-serif" font-size="14" lengthAdjust="spacing" textLength="126" x="414" y="1043.252">-initXTicksSpacers()</text><text fill="#000000" font-family="sans-serif" font-size="14" lengthAdjust="spacing" textLength="125" x="414" y="1060.8613">-initXTicksDrawing()</text><text fill="#000000" font-family="sans-serif" font-size="14" lengthAdjust="spacing" textLength="163" x="414" y="1078.4707">-setXTickDrawingLength()</text><text fill="#000000" font-family="sans-serif" font-size="14" lengthAdjust="spacing" textLength="155" x="414" y="1096.0801">-setXTickDrawingWidth()</text><text fill="#000000" font-family="sans-serif" font-size="14" lengthAdjust="spacing" textLength="97" x="414" y="1113.6895">-initXTicksBox()</text><text fill="#000000" font-family="sans-serif" font-size="14" lengthAdjust="spacing" textLength="89" x="414" y="1131.2988">-initColorBar()</text><text fill="#000000" font-family="sans-serif" font-size="14" lengthAdjust="spacing" textLength="141" x="414" y="1148.9082">-initColorBarSpacers()</text><text fill="#000000" font-family="sans-serif" font-size="14" lengthAdjust="spacing" textLength="142" x="414" y="1166.5176">-initColorBarTickText()</text><text fill="#000000" font-family="sans-serif" font-size="14" lengthAdjust="spacing" textLength="193" x="414" y="1184.127">-setColorBarTickTextPosition()</text><text fill="#000000" font-family="sans-serif" font-size="14" lengthAdjust="spacing" textLength="172" x="414" y="1201.7363">-setColorBarTickTextFont()</text><text fill="#000000" font-family="sans-serif" font-size="14" lengthAdjust="spacing" textLength="174" x="414" y="1219.3457">-setColorBarTickLabelBox()</text><text fill="#000000" font-family="sans-serif" font-size="14" lengthAdjust="spacing" textLength="144" x="414" y="1236.9551">-initColorBarGradient()</text><text fill="#000000" font-family="sans-serif" font-size="14" lengthAdjust="spacing" textLength="101" x="414" y="1254.5645">-drawColorBar()</text><text fill="#000000" font-family="sans-serif" font-size="14" lengthAdjust="spacing" textLength="134" x="414" y="1272.1738">-intiColorBarSpacer()</text><text fill="#000000" font-family="sans-serif" font-size="14" lengthAdjust="spacing" textLength="151" x="414" y="1289.7832">-initPlotAxesRectangle()</text><text fill="#000000" font-family="sans-serif" font-size="14" lengthAdjust="spacing" textLength="134" x="414" y="1307.3926">-drawAxisRectangle()</text><text fill="#000000" font-family="sans-serif" font-size="14" lengthAdjust="spacing" textLength="224" x="414" y="1325.002">-putAxisRectangleIntoPlottingArea()</text><text fill="#000000" font-family="sans-serif" font-size="14" lengthAdjust="spacing" textLength="177" x="414" y="1342.6113">-transformVectorFieldData()</text><text fill="#000000" font-family="sans-serif" font-size="14" lengthAdjust="spacing" textLength="111" x="414" y="1360.2207">-PlotVectorField()</text><text fill="#000000" font-family="sans-serif" font-size="14" lengthAdjust="spacing" textLength="174" x="414" y="1377.8301">-adjustSpacersForPlotting()</text><text fill="#000000" font-family="sans-serif" font-size="14" lengthAdjust="spacing" textLength="306" x="414" y="1395.4395">-setPlotAxesRectangleAndColorBarDimensions()</text><text fill="#000000" font-family="sans-serif" font-size="14" lengthAdjust="spacing" textLength="95" x="414" y="1413.0488">-setXTickText()</text><text fill="#000000" font-family="sans-serif" font-size="14" lengthAdjust="spacing" textLength="145" x="414" y="1430.6582">-setXTickTextPosition()</text><text fill="#000000" font-family="sans-serif" font-size="14" lengthAdjust="spacing" textLength="171" x="414" y="1448.2676">-putXTickTextToLabelBox()</text><text fill="#000000" font-family="sans-serif" font-size="14" lengthAdjust="spacing" textLength="96" x="414" y="1465.877">-setYTickText()</text><text fill="#000000" font-family="sans-serif" font-size="14" lengthAdjust="spacing" textLength="146" x="414" y="1483.4863">-setYTickTextPosition()</text><text fill="#000000" font-family="sans-serif" font-size="14" lengthAdjust="spacing" textLength="172" x="414" y="1501.0957">-putYTickTextToLabelBox()</text><text fill="#000000" font-family="sans-serif" font-size="14" lengthAdjust="spacing" textLength="143" x="414" y="1518.7051">-setColorBarTickText()</text><text fill="#000000" font-family="sans-serif" font-size="14" lengthAdjust="spacing" textLength="219" x="414" y="1536.3145">-putColorBarTickTextToLabelBox()</text><text fill="#000000" font-family="sans-serif" font-size="14" lengthAdjust="spacing" textLength="93" x="414" y="1553.9238">-drawVectors()</text><text fill="#000000" font-family="sans-serif" font-size="14" lengthAdjust="spacing" textLength="157" x="414" y="1571.5332">-setFontSizeTickLabels()</text><text fill="#000000" font-family="sans-serif" font-size="14" lengthAdjust="spacing" textLength="156" x="414" y="1589.1426">-setFontSizeAxisLabels()</text><text fill="#000000" font-family="sans-serif" font-size="14" lengthAdjust="spacing" textLength="110" x="414" y="1606.752">-setScaleFactor()</text><text fill="#000000" font-family="sans-serif" font-size="14" lengthAdjust="spacing" textLength="103" x="414" y="1624.3613">-setXAxisName()</text><text fill="#000000" font-family="sans-serif" font-size="14" lengthAdjust="spacing" textLength="104" x="414" y="1641.9707">-setYAxisName()</text><text fill="#000000" font-family="sans-serif" font-size="14" lengthAdjust="spacing" textLength="136" x="414" y="1659.5801">-setVectorFieldData()</text><text fill="#000000" font-family="sans-serif" font-size="14" lengthAdjust="spacing" textLength="90" x="414" y="1677.1895">-refreshData()</text><text fill="#000000" font-family="sans-serif" font-size="14" lengthAdjust="spacing" textLength="152" x="414" y="1694.7988">-initCoordinateRanges()</text><text fill="#000000" font-family="sans-serif" font-size="14" lengthAdjust="spacing" textLength="195" x="414" y="1712.4082">-calculateActualVectorLength()</text><text fill="#000000" font-family="sans-serif" font-size="14" lengthAdjust="spacing" textLength="153" x="414" y="1730.0176">-rescaleVectorElement()</text><text fill="#000000" font-family="sans-serif" font-size="14" lengthAdjust="spacing" textLength="132" x="414" y="1747.627">-recalculateFactors()</text></g><!--MD5=[b727a74f0a0526f8ad7898b6777dff1a]
class Arrow--><g id="elem_Arrow"><rect codeLine="134" fill="#F1F1F1" height="83.2188" id="Arrow" rx="2.5" ry="2.5" style="stroke:#181818;stroke-width:0.5;" width="106" x="761" y="1029"/><ellipse cx="793.1" cy="1045" fill="#C2C2C2" rx="11" ry="11" style="stroke:#181818;stroke-width:1.0;"/><path d="M795.8656,1040.875 Q796.0219,1040.6563 796.2094,1040.5469 Q796.3969,1040.4375 796.6156,1040.4375 Q796.9906,1040.4375 797.225,1040.7031 Q797.4594,1040.9531 797.4594,1041.5625 L797.4594,1043.0156 Q797.4594,1043.625 797.225,1043.8906 Q796.9906,1044.1563 796.6156,1044.1563 Q796.2719,1044.1563 796.0688,1043.9531 Q795.8656,1043.7656 795.7563,1043.25 Q795.7094,1042.8906 795.5219,1042.7031 Q795.1938,1042.3281 794.5844,1042.1094 Q793.975,1041.8906 793.35,1041.8906 Q792.5844,1041.8906 791.9438,1042.2188 Q791.3188,1042.5469 790.8188,1043.2969 Q790.3344,1044.0469 790.3344,1045.0781 L790.3344,1046.1719 Q790.3344,1047.4063 791.225,1048.2344 Q792.1156,1049.0469 793.7094,1049.0469 Q794.6469,1049.0469 795.3031,1048.7969 Q795.6938,1048.6406 796.1156,1048.2031 Q796.3813,1047.9375 796.5219,1047.8594 Q796.6781,1047.7813 796.8813,1047.7813 Q797.2094,1047.7813 797.4594,1048.0469 Q797.725,1048.2969 797.725,1048.6406 Q797.725,1048.9844 797.3813,1049.3906 Q796.8813,1049.9688 796.0844,1050.2969 Q795.0063,1050.75 793.7094,1050.75 Q792.1938,1050.75 790.9906,1050.125 Q790.0063,1049.625 789.3188,1048.5625 Q788.6313,1047.4844 788.6313,1046.2031 L788.6313,1045.0469 Q788.6313,1043.7188 789.2406,1042.5781 Q789.8656,1041.4219 790.9594,1040.8125 Q792.0531,1040.1875 793.2875,1040.1875 Q794.0219,1040.1875 794.6625,1040.3594 Q795.3188,1040.5156 795.8656,1040.875 Z " fill="#000000"/><text fill="#000000" font-family="sans-serif" font-size="14" lengthAdjust="spacing" textLength="36" x="810.9" y="1050.7285">Arrow</text><line style="stroke:#181818;stroke-width:0.5;" x1="762" x2="866" y1="1061" y2="1061"/><line style="stroke:#181818;stroke-width:0.5;" x1="762" x2="866" y1="1069" y2="1069"/><text fill="#000000" font-family="sans-serif" font-size="14" lengthAdjust="spacing" textLength="54" x="767" y="1087.5332">+Arrow()</text><text fill="#000000" font-family="sans-serif" font-size="14" lengthAdjust="spacing" textLength="94" x="767" y="1105.1426">+createArrow()</text></g><!--MD5=[c14339b1f2e67d8fb19452842fda6187]
link App to VectorFieldWidget--><g id="link_App_VectorFieldWidget"><path codeLine="140" d="M142.2732,734.7938 C142.2732,734.7938 198.33,300.77 386.5,322 C435.55,327.53 474.21,347.05 504.45,376.39 " fill="none" id="App-VectorFieldWidget" style="stroke:#181818;stroke-width:1.0;"/><polygon fill="#181818" points="513.57,385.81,510.1778,376.5637,510.0899,382.2199,504.4337,382.1319,513.57,385.81" style="stroke:#181818;stroke-width:1.0;"/><line style="stroke:#181818;stroke-width:1.0;" x1="510.0899" x2="504.525" y1="382.2199" y2="376.475"/><polygon fill="#181818" points="141.97,746.79,146.1203,740.893,142.2732,734.7938,138.1229,740.6908,141.97,746.79" style="stroke:#181818;stroke-width:1.0;"/></g><!--MD5=[4233d079a3b8c284094e8880f8e3e842]
reverse link VectorFieldWidget to Arrow--><g id="link_VectorFieldWidget_Arrow"><path codeLine="141" d="M741.35,1070.5 C747.85,1070.5 754.34,1070.5 760.84,1070.5 " fill="none" id="VectorFieldWidget-backto-Arrow" style="stroke:#181818;stroke-width:1.0;"/><ellipse cx="734.2" cy="1070.5" fill="#FFFFFF" rx="8" ry="8" style="stroke:#181818;stroke-width:1.0;"/><line style="stroke:#181818;stroke-width:1.0;" x1="742.2" x2="726.2" y1="1070.5" y2="1070.5"/><line style="stroke:#181818;stroke-width:1.0;" x1="734.2" x2="734.2" y1="1078.5" y2="1062.5"/></g><!--MD5=[f4a991862f9b5759af876fe9de4361b4]
reverse link javafx.application.Application to App--><g id="link_javafx.application.Application_App"><path codeLine="143" d="M359.32,298.79 C351.91,307.3 345.2,316.51 340,326 C269.22,455.17 223.23,611.17 195.17,746.85 " fill="none" id="javafx.application.Application-backto-App" style="stroke:#181818;stroke-width:1.0;"/><polygon fill="none" points="354.33,293.89,373.25,284.35,364.4,303.61,354.33,293.89" style="stroke:#181818;stroke-width:1.0;"/></g><!--MD5=[2d1b26941f9a7f083e1e6e84bfb1b255]
link App to javafx.application.Application--><!--MD5=[4eb614771eada5e9a25a1afafc12156b]
link PeriodicDataGenerator to App--><g id="link_PeriodicDataGenerator_App"><path codeLine="144" d="M162,294.24 C162,374.87 162,561.69 162,731.73 " fill="none" id="PeriodicDataGenerator-to-App" style="stroke:#181818;stroke-width:1.0;"/><ellipse cx="162" cy="738.81" fill="#FFFFFF" rx="8" ry="8" style="stroke:#181818;stroke-width:1.0;"/><line style="stroke:#181818;stroke-width:1.0;" x1="162" x2="162" y1="730.81" y2="746.81"/><line style="stroke:#181818;stroke-width:1.0;" x1="170" x2="154" y1="738.81" y2="738.81"/></g><!--MD5=[17a3ae7619be8820d48f5c6d39860160]
link PeriodicDataGenerator to java.util.TimerTask--><g id="link_PeriodicDataGenerator_java.util.TimerTask"><path codeLine="145" d="M161.78,210.8 C161.62,181.06 161.4,140.79 161.24,110.43 " fill="none" id="PeriodicDataGenerator-to-java.util.TimerTask" style="stroke:#181818;stroke-width:1.0;"/><polygon fill="none" points="154.24,110.4,161.13,90.37,168.24,110.33,154.24,110.4" style="stroke:#181818;stroke-width:1.0;"/></g><!--MD5=[dc5abfc7cb6142388ccc59bfa8714ff3]
link java.util.TimerTask to PeriodicDataGenerator--><!--MD5=[21b326d51943701ba7f6731786110bba]
link App to VectorFieldWidgetGroup--><!--MD5=[58edde75ec265210c8ce8afb3ed1d34f]
@startuml

skinparam monochrome true
skinparam classAttributeIconSize 0

together mainAppGroup{
    
    class javafx.application.Application{
        +start()
        +launch()
    }
    class App{
        +main()
        +start()
        -initializeRootPane()
        -initializeChildrenPanes()
        -initializeParametersHolder()
        -addXminToParametersHolder()
        -addXmaxToParametersHolder()
        -addYminToParametersHolder()
        -addYmaxToParametersHolder()
        -addDeltaXminToParametersHolder()
        -addDeltaXmaxToParametersHolder()
        -addDeltaYminToParametersHolder()
        -addDeltaYmaxToParametersHolder()
        -addNumOfPointsToParametersHolder()
        -addAppModeComboBoxToParametersHolder()
        -addParametersHolderToParametersPane()
        -addRefreshingRateToParametersHolder()
        -addScalingFactorToParametersHolder()
        -parseParametersFromGuiControls()
        -initializeVectorField()
        -setModesComboBoxOnAction()
        -setXminCtrlOnAction()
        -setXmaxCtrlOnAction()
        -setYminCtrlOnAction()
        -setYmaxCtrlOnAction()
        -setDeltaXminCtrlOnAction()
        -setDeltaXmaxCtrlOnAction()
        -setDeltaYminCtrlOnAction()
        -setDeltaYmaxCtrlOnAction()
        -setNumberOfPointsOnAction()
        -setScalingFactorOnAction()
        -setRefreshinRateOnAction()
        -initializeStage()
        -GenerateVectorFieldData()
    }
    class PeriodicDataGenerator{
        +PeriodicDataGenerator()
        +run()
    }
    class java.util.TimerTask{

    }
}
together VectorFieldWidgetGroup{
    class VectorFieldWidget{
        +VectorFieldWidget()
        +getData()
        +setWidth()
        +setHeight()
        -initPlotAndAxisNames()
        -initFontSizes()
        -setInitialMinAndMaxValues()
        -initParrentPane()
        -initVectorFieldData()
        -initVectorField()
        -initSpacers()
        -initCanvas()
        -initPlotName()
        -initYAxis()
        -initYAxisLabel()
        -initYLabelBox()
        -initYTickLabelSpacers()
        -initYTicksText()
        -setYTicksTextPosition()
        -setYTicksTextFont()
        -initYTicksLabelBox()
        -initYTicksSpacers()
        -initYTickDrawing()
        -setYTickDrawingLength()
        -setYTickDrawingWidth()
        -initYTicksBox()
        -initXAxis()
        -initXAxisLabel()
        -initXLabelBox()
        -initXTickLabelSpacers()
        -initXTicksText()
        -setXTicksTextPosition()
        -setXTicksTextFont()
        -setXTicksLabelBox()
        -initXTicksSpacers()
        -initXTicksDrawing()
        -setXTickDrawingLength()
        -setXTickDrawingWidth()
        -initXTicksBox()
        -initColorBar()
        -initColorBarSpacers()
        -initColorBarTickText()
        -setColorBarTickTextPosition()
        -setColorBarTickTextFont()
        -setColorBarTickLabelBox()
        -initColorBarGradient()
        -drawColorBar()
        -intiColorBarSpacer()
        -initPlotAxesRectangle()
        -drawAxisRectangle()
        -putAxisRectangleIntoPlottingArea()
        -transformVectorFieldData()
        -PlotVectorField()
        -adjustSpacersForPlotting()
        -setPlotAxesRectangleAndColorBarDimensions()
        -setXTickText()
        -setXTickTextPosition()
        -putXTickTextToLabelBox()
        -setYTickText()
        -setYTickTextPosition()
        -putYTickTextToLabelBox()
        -setColorBarTickText()
        -putColorBarTickTextToLabelBox()
        -drawVectors()
        -setFontSizeTickLabels()
        -setFontSizeAxisLabels()
        -setScaleFactor()
        -setXAxisName()
        -setYAxisName()
        -setVectorFieldData()
        -refreshData()
        -initCoordinateRanges()
        -calculateActualVectorLength()
        -rescaleVectorElement()
        -recalculateFactors()
    }

    class Arrow{
        +Arrow()
        +createArrow()
    }
}

App *-right-> VectorFieldWidget
VectorFieldWidget +-right- Arrow

javafx.application.Application <|-down- App
PeriodicDataGenerator - -+ App
PeriodicDataGenerator - -|> java.util.TimerTask


App -[hidden]down- - javafx.application.Application
PeriodicDataGenerator -[hidden]up- - java.util.TimerTask
App -[hidden]right- - VectorFieldWidgetGroup
@enduml

PlantUML version 1.2022.7(Mon Aug 22 23:01:30 ALMT 2022)
(GPL source distribution)
Java Runtime: Java(TM) SE Runtime Environment
JVM: Java HotSpot(TM) 64-Bit Server VM
Default Encoding: UTF-8
Language: en
Country: GB
--></g></svg>