<?xml version="1.0" encoding="UTF-8" standalone="no"?><svg xmlns="http://www.w3.org/2000/svg" xmlns:xlink="http://www.w3.org/1999/xlink" contentStyleType="text/css" height="1007px" preserveAspectRatio="none" style="width:502px;height:1007px;background:#FFFFFF;" version="1.1" viewBox="0 0 502 1007" width="502px" zoomAndPan="magnify"><defs/><g><!--MD5=[2cb20bf6d6d76d6b7fb8dcb62eb5d32f]
cluster mainAppGroup--><!--MD5=[315bf7c36bcdbdaee5bb7549ab6e8767]
cluster javafx.application--><g id="cluster_javafx.application"><path d="M8.5,600 L132.5,600 A3.75,3.75 0 0 1 135,602.5 L142,623.6094 L142.5,623.6094 A2.5,2.5 0 0 1 145,626.1094 L145,732.5 A2.5,2.5 0 0 1 142.5,735 L8.5,735 A2.5,2.5 0 0 1 6,732.5 L6,602.5 A2.5,2.5 0 0 1 8.5,600 " fill="none" style="stroke:#000000;stroke-width:1.5;"/><line style="stroke:#000000;stroke-width:1.5;" x1="6" x2="142" y1="623.6094" y2="623.6094"/><text fill="#000000" font-family="sans-serif" font-size="14" font-weight="bold" lengthAdjust="spacing" textLength="123" x="10" y="616.5332">javafx.application</text></g><!--MD5=[7db3c59d38ae5b37b484eb2df9368145]
cluster java.util--><g id="cluster_java.util"><path d="M275.5,6 L331.5,6 A3.75,3.75 0 0 1 334,8.5 L341,29.6094 L402.5,29.6094 A2.5,2.5 0 0 1 405,32.1094 L405,103.5 A2.5,2.5 0 0 1 402.5,106 L275.5,106 A2.5,2.5 0 0 1 273,103.5 L273,8.5 A2.5,2.5 0 0 1 275.5,6 " fill="none" style="stroke:#000000;stroke-width:1.5;"/><line style="stroke:#000000;stroke-width:1.5;" x1="273" x2="341" y1="29.6094" y2="29.6094"/><text fill="#000000" font-family="sans-serif" font-size="14" font-weight="bold" lengthAdjust="spacing" textLength="55" x="277" y="22.5332">java.util</text></g><!--MD5=[335f4d9be48430461c68bf6d6fdba145]
class App--><g id="elem_App"><rect codeLine="11" fill="#F1F1F1" height="646.7188" id="App" rx="2.5" ry="2.5" style="stroke:#181818;stroke-width:0.5;" width="310" x="185" y="354"/><ellipse cx="323.25" cy="370" fill="#C2C2C2" rx="11" ry="11" style="stroke:#181818;stroke-width:1.0;"/><path d="M326.0156,365.875 Q326.1719,365.6563 326.3594,365.5469 Q326.5469,365.4375 326.7656,365.4375 Q327.1406,365.4375 327.375,365.7031 Q327.6094,365.9531 327.6094,366.5625 L327.6094,368.0156 Q327.6094,368.625 327.375,368.8906 Q327.1406,369.1563 326.7656,369.1563 Q326.4219,369.1563 326.2188,368.9531 Q326.0156,368.7656 325.9063,368.25 Q325.8594,367.8906 325.6719,367.7031 Q325.3438,367.3281 324.7344,367.1094 Q324.125,366.8906 323.5,366.8906 Q322.7344,366.8906 322.0938,367.2188 Q321.4688,367.5469 320.9688,368.2969 Q320.4844,369.0469 320.4844,370.0781 L320.4844,371.1719 Q320.4844,372.4063 321.375,373.2344 Q322.2656,374.0469 323.8594,374.0469 Q324.7969,374.0469 325.4531,373.7969 Q325.8438,373.6406 326.2656,373.2031 Q326.5313,372.9375 326.6719,372.8594 Q326.8281,372.7813 327.0313,372.7813 Q327.3594,372.7813 327.6094,373.0469 Q327.875,373.2969 327.875,373.6406 Q327.875,373.9844 327.5313,374.3906 Q327.0313,374.9688 326.2344,375.2969 Q325.1563,375.75 323.8594,375.75 Q322.3438,375.75 321.1406,375.125 Q320.1563,374.625 319.4688,373.5625 Q318.7813,372.4844 318.7813,371.2031 L318.7813,370.0469 Q318.7813,368.7188 319.3906,367.5781 Q320.0156,366.4219 321.1094,365.8125 Q322.2031,365.1875 323.4375,365.1875 Q324.1719,365.1875 324.8125,365.3594 Q325.4688,365.5156 326.0156,365.875 Z " fill="#000000"/><text fill="#000000" font-family="sans-serif" font-size="14" lengthAdjust="spacing" textLength="25" x="343.75" y="375.7285">App</text><line style="stroke:#181818;stroke-width:0.5;" x1="186" x2="494" y1="386" y2="386"/><line style="stroke:#181818;stroke-width:0.5;" x1="186" x2="494" y1="394" y2="394"/><text fill="#000000" font-family="sans-serif" font-size="14" lengthAdjust="spacing" textLength="48" x="191" y="412.5332">+main()</text><text fill="#000000" font-family="sans-serif" font-size="14" lengthAdjust="spacing" textLength="46" x="191" y="430.1426">+start()</text><text fill="#000000" font-family="sans-serif" font-size="14" lengthAdjust="spacing" textLength="127" x="191" y="447.752">-initializeRootPane()</text><text fill="#000000" font-family="sans-serif" font-size="14" lengthAdjust="spacing" textLength="157" x="191" y="465.3613">-initializeChildrenPanes()</text><text fill="#000000" font-family="sans-serif" font-size="14" lengthAdjust="spacing" textLength="178" x="191" y="482.9707">-initializeParametersHolder()</text><text fill="#000000" font-family="sans-serif" font-size="14" lengthAdjust="spacing" textLength="200" x="191" y="500.5801">-addXminToParametersHolder()</text><text fill="#000000" font-family="sans-serif" font-size="14" lengthAdjust="spacing" textLength="203" x="191" y="518.1895">-addXmaxToParametersHolder()</text><text fill="#000000" font-family="sans-serif" font-size="14" lengthAdjust="spacing" textLength="201" x="191" y="535.7988">-addYminToParametersHolder()</text><text fill="#000000" font-family="sans-serif" font-size="14" lengthAdjust="spacing" textLength="204" x="191" y="553.4082">-addYmaxToParametersHolder()</text><text fill="#000000" font-family="sans-serif" font-size="14" lengthAdjust="spacing" textLength="233" x="191" y="571.0176">-addDeltaXminToParametersHolder()</text><text fill="#000000" font-family="sans-serif" font-size="14" lengthAdjust="spacing" textLength="236" x="191" y="588.627">-addDeltaXmaxToParametersHolder()</text><text fill="#000000" font-family="sans-serif" font-size="14" lengthAdjust="spacing" textLength="234" x="191" y="606.2363">-addDeltaYminToParametersHolder()</text><text fill="#000000" font-family="sans-serif" font-size="14" lengthAdjust="spacing" textLength="237" x="191" y="623.8457">-addDeltaYmaxToParametersHolder()</text><text fill="#000000" font-family="sans-serif" font-size="14" lengthAdjust="spacing" textLength="252" x="191" y="641.4551">-addNumOfPointsToParametersHolder()</text><text fill="#000000" font-family="sans-serif" font-size="14" lengthAdjust="spacing" textLength="298" x="191" y="659.0645">-addAppModeComboBoxToParametersHolder()</text><text fill="#000000" font-family="sans-serif" font-size="14" lengthAdjust="spacing" textLength="276" x="191" y="676.6738">-addParametersHolderToParametersPane()</text><text fill="#000000" font-family="sans-serif" font-size="14" lengthAdjust="spacing" textLength="269" x="191" y="694.2832">-addRefreshingRateToParametersHolder()</text><text fill="#000000" font-family="sans-serif" font-size="14" lengthAdjust="spacing" textLength="257" x="191" y="711.8926">-addScalingFactorToParametersHolder()</text><text fill="#000000" font-family="sans-serif" font-size="14" lengthAdjust="spacing" textLength="232" x="191" y="729.502">-parseParametersFromGuiControls()</text><text fill="#000000" font-family="sans-serif" font-size="14" lengthAdjust="spacing" textLength="136" x="191" y="747.1113">-initializeVectorField()</text><text fill="#000000" font-family="sans-serif" font-size="14" lengthAdjust="spacing" textLength="202" x="191" y="764.7207">-setModesComboBoxOnAction()</text><text fill="#000000" font-family="sans-serif" font-size="14" lengthAdjust="spacing" textLength="144" x="191" y="782.3301">-setXminCtrlOnAction()</text><text fill="#000000" font-family="sans-serif" font-size="14" lengthAdjust="spacing" textLength="147" x="191" y="799.9395">-setXmaxCtrlOnAction()</text><text fill="#000000" font-family="sans-serif" font-size="14" lengthAdjust="spacing" textLength="145" x="191" y="817.5488">-setYminCtrlOnAction()</text><text fill="#000000" font-family="sans-serif" font-size="14" lengthAdjust="spacing" textLength="148" x="191" y="835.1582">-setYmaxCtrlOnAction()</text><text fill="#000000" font-family="sans-serif" font-size="14" lengthAdjust="spacing" textLength="177" x="191" y="852.7676">-setDeltaXminCtrlOnAction()</text><text fill="#000000" font-family="sans-serif" font-size="14" lengthAdjust="spacing" textLength="180" x="191" y="870.377">-setDeltaXmaxCtrlOnAction()</text><text fill="#000000" font-family="sans-serif" font-size="14" lengthAdjust="spacing" textLength="178" x="191" y="887.9863">-setDeltaYminCtrlOnAction()</text><text fill="#000000" font-family="sans-serif" font-size="14" lengthAdjust="spacing" textLength="181" x="191" y="905.5957">-setDeltaYmaxCtrlOnAction()</text><text fill="#000000" font-family="sans-serif" font-size="14" lengthAdjust="spacing" textLength="195" x="191" y="923.2051">-setNumberOfPointsOnAction()</text><text fill="#000000" font-family="sans-serif" font-size="14" lengthAdjust="spacing" textLength="179" x="191" y="940.8145">-setScalingFactorOnAction()</text><text fill="#000000" font-family="sans-serif" font-size="14" lengthAdjust="spacing" textLength="183" x="191" y="958.4238">-setRefreshinRateOnAction()</text><text fill="#000000" font-family="sans-serif" font-size="14" lengthAdjust="spacing" textLength="101" x="191" y="976.0332">-initializeStage()</text><text fill="#000000" font-family="sans-serif" font-size="14" lengthAdjust="spacing" textLength="177" x="191" y="993.6426">-GenerateVectorFieldData()</text></g><!--MD5=[52846e8e4ab4b8ede23547817acd6172]
class PeriodicDataGenerator--><g id="elem_PeriodicDataGenerator"><rect codeLine="47" fill="#F1F1F1" height="83.2188" id="PeriodicDataGenerator" rx="2.5" ry="2.5" style="stroke:#181818;stroke-width:0.5;" width="178" x="251" y="211"/><ellipse cx="266" cy="227" fill="#C2C2C2" rx="11" ry="11" style="stroke:#181818;stroke-width:1.0;"/><path d="M268.7656,222.875 Q268.9219,222.6563 269.1094,222.5469 Q269.2969,222.4375 269.5156,222.4375 Q269.8906,222.4375 270.125,222.7031 Q270.3594,222.9531 270.3594,223.5625 L270.3594,225.0156 Q270.3594,225.625 270.125,225.8906 Q269.8906,226.1563 269.5156,226.1563 Q269.1719,226.1563 268.9688,225.9531 Q268.7656,225.7656 268.6563,225.25 Q268.6094,224.8906 268.4219,224.7031 Q268.0938,224.3281 267.4844,224.1094 Q266.875,223.8906 266.25,223.8906 Q265.4844,223.8906 264.8438,224.2188 Q264.2188,224.5469 263.7188,225.2969 Q263.2344,226.0469 263.2344,227.0781 L263.2344,228.1719 Q263.2344,229.4063 264.125,230.2344 Q265.0156,231.0469 266.6094,231.0469 Q267.5469,231.0469 268.2031,230.7969 Q268.5938,230.6406 269.0156,230.2031 Q269.2813,229.9375 269.4219,229.8594 Q269.5781,229.7813 269.7813,229.7813 Q270.1094,229.7813 270.3594,230.0469 Q270.625,230.2969 270.625,230.6406 Q270.625,230.9844 270.2813,231.3906 Q269.7813,231.9688 268.9844,232.2969 Q267.9063,232.75 266.6094,232.75 Q265.0938,232.75 263.8906,232.125 Q262.9063,231.625 262.2188,230.5625 Q261.5313,229.4844 261.5313,228.2031 L261.5313,227.0469 Q261.5313,225.7188 262.1406,224.5781 Q262.7656,223.4219 263.8594,222.8125 Q264.9531,222.1875 266.1875,222.1875 Q266.9219,222.1875 267.5625,222.3594 Q268.2188,222.5156 268.7656,222.875 Z " fill="#000000"/><text fill="#000000" font-family="sans-serif" font-size="14" lengthAdjust="spacing" textLength="146" x="280" y="232.7285">PeriodicDataGenerator</text><line style="stroke:#181818;stroke-width:0.5;" x1="252" x2="428" y1="243" y2="243"/><line style="stroke:#181818;stroke-width:0.5;" x1="252" x2="428" y1="251" y2="251"/><text fill="#000000" font-family="sans-serif" font-size="14" lengthAdjust="spacing" textLength="164" x="257" y="269.5332">+PeriodicDataGenerator()</text><text fill="#000000" font-family="sans-serif" font-size="14" lengthAdjust="spacing" textLength="39" x="257" y="287.1426">+run()</text></g><!--MD5=[e3612552781b2b3849880f2b7cc3064d]
class javafx.application.Application--><g id="elem_javafx.application.Application"><rect codeLine="7" fill="#F1F1F1" height="83.2188" id="javafx.application.Application" rx="2.5" ry="2.5" style="stroke:#181818;stroke-width:0.5;" width="101" x="27.5" y="636"/><ellipse cx="42.5" cy="652" fill="#C2C2C2" rx="11" ry="11" style="stroke:#181818;stroke-width:1.0;"/><path d="M45.2656,647.875 Q45.4219,647.6563 45.6094,647.5469 Q45.7969,647.4375 46.0156,647.4375 Q46.3906,647.4375 46.625,647.7031 Q46.8594,647.9531 46.8594,648.5625 L46.8594,650.0156 Q46.8594,650.625 46.625,650.8906 Q46.3906,651.1563 46.0156,651.1563 Q45.6719,651.1563 45.4688,650.9531 Q45.2656,650.7656 45.1563,650.25 Q45.1094,649.8906 44.9219,649.7031 Q44.5938,649.3281 43.9844,649.1094 Q43.375,648.8906 42.75,648.8906 Q41.9844,648.8906 41.3438,649.2188 Q40.7188,649.5469 40.2188,650.2969 Q39.7344,651.0469 39.7344,652.0781 L39.7344,653.1719 Q39.7344,654.4063 40.625,655.2344 Q41.5156,656.0469 43.1094,656.0469 Q44.0469,656.0469 44.7031,655.7969 Q45.0938,655.6406 45.5156,655.2031 Q45.7813,654.9375 45.9219,654.8594 Q46.0781,654.7813 46.2813,654.7813 Q46.6094,654.7813 46.8594,655.0469 Q47.125,655.2969 47.125,655.6406 Q47.125,655.9844 46.7813,656.3906 Q46.2813,656.9688 45.4844,657.2969 Q44.4063,657.75 43.1094,657.75 Q41.5938,657.75 40.3906,657.125 Q39.4063,656.625 38.7188,655.5625 Q38.0313,654.4844 38.0313,653.2031 L38.0313,652.0469 Q38.0313,650.7188 38.6406,649.5781 Q39.2656,648.4219 40.3594,647.8125 Q41.4531,647.1875 42.6875,647.1875 Q43.4219,647.1875 44.0625,647.3594 Q44.7188,647.5156 45.2656,647.875 Z " fill="#000000"/><text fill="#000000" font-family="sans-serif" font-size="14" lengthAdjust="spacing" textLength="69" x="56.5" y="657.7285">Application</text><line style="stroke:#181818;stroke-width:0.5;" x1="28.5" x2="127.5" y1="668" y2="668"/><line style="stroke:#181818;stroke-width:0.5;" x1="28.5" x2="127.5" y1="676" y2="676"/><text fill="#000000" font-family="sans-serif" font-size="14" lengthAdjust="spacing" textLength="46" x="33.5" y="694.5332">+start()</text><text fill="#000000" font-family="sans-serif" font-size="14" lengthAdjust="spacing" textLength="60" x="33.5" y="712.1426">+launch()</text></g><!--MD5=[ad113b661ca3197b37140075903a870b]
class java.util.TimerTask--><g id="elem_java.util.TimerTask"><rect codeLine="51" fill="#F1F1F1" height="48" id="java.util.TimerTask" rx="2.5" ry="2.5" style="stroke:#181818;stroke-width:0.5;" width="99" x="289.5" y="42"/><ellipse cx="304.5" cy="58" fill="#C2C2C2" rx="11" ry="11" style="stroke:#181818;stroke-width:1.0;"/><path d="M307.2656,53.875 Q307.4219,53.6563 307.6094,53.5469 Q307.7969,53.4375 308.0156,53.4375 Q308.3906,53.4375 308.625,53.7031 Q308.8594,53.9531 308.8594,54.5625 L308.8594,56.0156 Q308.8594,56.625 308.625,56.8906 Q308.3906,57.1563 308.0156,57.1563 Q307.6719,57.1563 307.4688,56.9531 Q307.2656,56.7656 307.1563,56.25 Q307.1094,55.8906 306.9219,55.7031 Q306.5938,55.3281 305.9844,55.1094 Q305.375,54.8906 304.75,54.8906 Q303.9844,54.8906 303.3438,55.2188 Q302.7188,55.5469 302.2188,56.2969 Q301.7344,57.0469 301.7344,58.0781 L301.7344,59.1719 Q301.7344,60.4063 302.625,61.2344 Q303.5156,62.0469 305.1094,62.0469 Q306.0469,62.0469 306.7031,61.7969 Q307.0938,61.6406 307.5156,61.2031 Q307.7813,60.9375 307.9219,60.8594 Q308.0781,60.7813 308.2813,60.7813 Q308.6094,60.7813 308.8594,61.0469 Q309.125,61.2969 309.125,61.6406 Q309.125,61.9844 308.7813,62.3906 Q308.2813,62.9688 307.4844,63.2969 Q306.4063,63.75 305.1094,63.75 Q303.5938,63.75 302.3906,63.125 Q301.4063,62.625 300.7188,61.5625 Q300.0313,60.4844 300.0313,59.2031 L300.0313,58.0469 Q300.0313,56.7188 300.6406,55.5781 Q301.2656,54.4219 302.3594,53.8125 Q303.4531,53.1875 304.6875,53.1875 Q305.4219,53.1875 306.0625,53.3594 Q306.7188,53.5156 307.2656,53.875 Z " fill="#000000"/><text fill="#000000" font-family="sans-serif" font-size="14" lengthAdjust="spacing" textLength="67" x="318.5" y="63.7285">TimerTask</text><line style="stroke:#181818;stroke-width:0.5;" x1="290.5" x2="387.5" y1="74" y2="74"/><line style="stroke:#181818;stroke-width:0.5;" x1="290.5" x2="387.5" y1="82" y2="82"/></g><!--MD5=[f4a991862f9b5759af876fe9de4361b4]
reverse link javafx.application.Application to App--><g id="link_javafx.application.Application_App"><path codeLine="57" d="M148.83,677.5 C160.82,677.5 172.81,677.5 184.8,677.5 " fill="none" id="javafx.application.Application-backto-App" style="stroke:#181818;stroke-width:1.0;"/><polygon fill="none" points="148.66,684.5,128.66,677.5,148.66,670.5,148.66,684.5" style="stroke:#181818;stroke-width:1.0;"/></g><!--MD5=[2d1b26941f9a7f083e1e6e84bfb1b255]
link App to javafx.application.Application--><!--MD5=[4eb614771eada5e9a25a1afafc12156b]
link PeriodicDataGenerator to App--><g id="link_PeriodicDataGenerator_App"><path codeLine="58" d="M340,294.06 C340,306.69 340,321.76 340,338.5 " fill="none" id="PeriodicDataGenerator-to-App" style="stroke:#181818;stroke-width:1.0;"/><ellipse cx="340" cy="345.62" fill="#FFFFFF" rx="8" ry="8" style="stroke:#181818;stroke-width:1.0;"/><line style="stroke:#181818;stroke-width:1.0;" x1="340" x2="340" y1="337.62" y2="353.62"/><line style="stroke:#181818;stroke-width:1.0;" x1="348" x2="332" y1="345.62" y2="345.62"/></g><!--MD5=[17a3ae7619be8820d48f5c6d39860160]
link PeriodicDataGenerator to java.util.TimerTask--><g id="link_PeriodicDataGenerator_java.util.TimerTask"><path codeLine="59" d="M339.78,210.8 C339.62,181.06 339.4,140.79 339.24,110.43 " fill="none" id="PeriodicDataGenerator-to-java.util.TimerTask" style="stroke:#181818;stroke-width:1.0;"/><polygon fill="none" points="332.24,110.4,339.13,90.37,346.24,110.33,332.24,110.4" style="stroke:#181818;stroke-width:1.0;"/></g><!--MD5=[dc5abfc7cb6142388ccc59bfa8714ff3]
link java.util.TimerTask to PeriodicDataGenerator--><!--MD5=[5e4d38858c24533146d12d06f7e5ea83]
@startuml

skinparam monochrome true
skinparam classAttributeIconSize 0

together mainAppGroup{
    
    class javafx.application.Application{
        +start()
        +launch()
    }
    class App{
        +main()
        +start()
        -initializeRootPane()
        -initializeChildrenPanes()
        -initializeParametersHolder()
        -addXminToParametersHolder()
        -addXmaxToParametersHolder()
        -addYminToParametersHolder()
        -addYmaxToParametersHolder()
        -addDeltaXminToParametersHolder()
        -addDeltaXmaxToParametersHolder()
        -addDeltaYminToParametersHolder()
        -addDeltaYmaxToParametersHolder()
        -addNumOfPointsToParametersHolder()
        -addAppModeComboBoxToParametersHolder()
        -addParametersHolderToParametersPane()
        -addRefreshingRateToParametersHolder()
        -addScalingFactorToParametersHolder()
        -parseParametersFromGuiControls()
        -initializeVectorField()
        -setModesComboBoxOnAction()
        -setXminCtrlOnAction()
        -setXmaxCtrlOnAction()
        -setYminCtrlOnAction()
        -setYmaxCtrlOnAction()
        -setDeltaXminCtrlOnAction()
        -setDeltaXmaxCtrlOnAction()
        -setDeltaYminCtrlOnAction()
        -setDeltaYmaxCtrlOnAction()
        -setNumberOfPointsOnAction()
        -setScalingFactorOnAction()
        -setRefreshinRateOnAction()
        -initializeStage()
        -GenerateVectorFieldData()
    }
    class PeriodicDataGenerator{
        +PeriodicDataGenerator()
        +run()
    }
    class java.util.TimerTask{

    }
}


javafx.application.Application <|- - App
PeriodicDataGenerator - -+ App
PeriodicDataGenerator - -|> java.util.TimerTask


App -[hidden]right- - javafx.application.Application
PeriodicDataGenerator -[hidden]up- - java.util.TimerTask

@enduml

PlantUML version 1.2022.7(Mon Aug 22 23:01:30 ALMT 2022)
(GPL source distribution)
Java Runtime: Java(TM) SE Runtime Environment
JVM: Java HotSpot(TM) 64-Bit Server VM
Default Encoding: UTF-8
Language: en
Country: GB
--></g></svg>